# xmcd
#
# Track frame offsets:
# 150
# 17860
# 37534
# 52117
# 69431
# 88827
# 108432
# 127627
# 142042
# 158291
# 181208
#
# Disc length: 2595 seconds
#
#
# Revision: 2
# Processed by: cddbd v1.5.1PL0 Copyright (c) Steve Scherf et al.
# Submitted via: FreeRIP 2.53 
#
DISCID=820a210b
DTITLE=Tose Proeski - Nekade vo nokjta
DYEAR=2001
DGENRE=
TTITLE0=Tvoite baknezi na moite beli kosuli
TTITLE1=Eh, da sum zlato
TTITLE2=Go molam neboto da mi te vrati
TTITLE3=Skrsi me
TTITLE4=Posle dozd doagja sonce
TTITLE5=Ruski rulet
TTITLE6=Pusti me
TTITLE7=Ostani do kraj
TTITLE8=Pobegni
TTITLE9=Sonce vo tvoite rusi kosi
TTITLE10=Usni na usni
EXTD=
EXTT0=
EXTT1=
EXTT2=
EXTT3=
EXTT4=
EXTT5=
EXTT6=
EXTT7=
EXTT8=
EXTT9=
EXTT10=
PLAYORDER=
